<?xml version="1.0" standalone="no"?>
<!DOCTYPE svg PUBLIC "-//W3C//DTD SVG 20010904//EN"
 "http://www.w3.org/TR/2001/REC-SVG-20010904/DTD/svg10.dtd">
<svg version="1.0" xmlns="http://www.w3.org/2000/svg"
 width="3128.000000pt" height="1053.000000pt" viewBox="0 0 3128.000000 1053.000000"
 preserveAspectRatio="xMidYMid meet">

<g transform="translate(0.000000,1053.000000) scale(0.100000,-0.100000)"
fill="#000000" stroke="none">
<path d="M1110 5175 l0 -4435 165 0 165 0 0 4435 0 4435 -165 0 -165 0 0
-4435z"/>
<path d="M1780 5175 l0 -4435 165 0 165 0 0 4435 0 4435 -165 0 -165 0 0
-4435z"/>
<path d="M2642 5178 l3 -4433 300 0 300 0 3 4433 2 4432 -305 0 -305 0 2
-4432z"/>
<path d="M3780 5175 l0 -4435 168 2 167 3 3 4433 2 4432 -170 0 -170 0 0
-4435z"/>
<path d="M4450 5175 l0 -4435 600 0 600 0 0 4435 0 4435 -600 0 -600 0 0
-4435z"/>
<path d="M5990 5175 l0 -4435 165 0 165 0 0 4435 0 4435 -165 0 -165 0 0
-4435z"/>
<path d="M6612 5178 l3 -4433 300 0 300 0 3 4433 2 4432 -305 0 -305 0 2
-4432z"/>
<path d="M7570 5175 l0 -4435 465 0 465 0 0 4435 0 4435 -465 0 -465 0 0
-4435z"/>
<path d="M9400 5175 l0 -4435 300 0 300 0 0 4435 0 4435 -300 0 -300 0 0
-4435z"/>
<path d="M10282 5178 l3 -4433 168 -3 167 -2 0 4435 0 4435 -170 0 -170 0 2
-4432z"/>
<path d="M10830 5175 l0 -4435 300 0 300 0 0 4435 0 4435 -300 0 -300 0 0
-4435z"/>
<path d="M12460 5175 l0 -4435 165 0 165 0 0 4435 0 4435 -165 0 -165 0 0
-4435z"/>
<path d="M13070 5175 l0 -4435 300 0 300 0 0 4435 0 4435 -300 0 -300 0 0
-4435z"/>
<path d="M14570 5175 l0 -4435 165 0 165 0 0 4435 0 4435 -165 0 -165 0 0
-4435z"/>
<path d="M15110 5175 l0 -4435 165 0 165 0 0 4435 0 4435 -165 0 -165 0 0
-4435z"/>
<path d="M15652 5178 l3 -4433 168 -3 167 -2 0 4435 0 4435 -170 0 -170 0 2
-4432z"/>
<path d="M16270 5175 l0 -4435 165 0 165 0 0 4435 0 4435 -165 0 -165 0 0
-4435z"/>
<path d="M16880 5175 l0 -4435 165 0 165 0 0 4435 0 4435 -165 0 -165 0 0
-4435z"/>
<path d="M18580 5175 l0 -4435 165 0 165 0 0 4435 0 4435 -165 0 -165 0 0
-4435z"/>
<path d="M19470 5175 l0 -4435 465 0 465 0 0 4435 0 4435 -465 0 -465 0 0
-4435z"/>
<path d="M20690 5175 l0 -4435 368 2 367 3 3 4433 2 4432 -370 0 -370 0 0
-4435z"/>
<path d="M21980 5175 l0 -4435 300 0 300 0 0 4435 0 4435 -300 0 -300 0 0
-4435z"/>
<path d="M22790 5175 l0 -4435 168 2 167 3 3 4433 2 4432 -170 0 -170 0 0
-4435z"/>
<path d="M23682 5178 l3 -4433 503 -3 502 -2 0 4435 0 4435 -505 0 -505 0 2
-4432z"/>
<path d="M25650 5175 l0 -4435 500 0 500 0 0 4435 0 4435 -500 0 -500 0 0
-4435z"/>
<path d="M27190 5175 l0 -4435 165 0 165 0 0 4435 0 4435 -165 0 -165 0 0
-4435z"/>
<path d="M28390 5175 l0 -4435 165 0 165 0 0 4435 0 4435 -165 0 -165 0 0
-4435z"/>
<path d="M29260 5175 l0 -4435 165 0 165 0 0 4435 0 4435 -165 0 -165 0 0
-4435z"/>
<path d="M29790 5175 l0 -4435 170 0 170 0 0 4435 0 4435 -170 0 -170 0 0
-4435z"/>
</g>
</svg>
