<?xml version="1.0" standalone="no"?>
<!DOCTYPE svg PUBLIC "-//W3C//DTD SVG 20010904//EN"
 "http://www.w3.org/TR/2001/REC-SVG-20010904/DTD/svg10.dtd">
<svg version="1.0" xmlns="http://www.w3.org/2000/svg"
 width="500.000000pt" height="312.000000pt" viewBox="0 0 500.000000 312.000000"
 preserveAspectRatio="xMidYMid meet">

<g transform="translate(0.000000,312.000000) scale(0.100000,-0.100000)"
fill="#000000" stroke="none">
<path d="M263 3101 c-97 -33 -156 -88 -200 -186 -17 -38 -18 -111 -18 -1345 0
-1236 1 -1308 18 -1357 24 -70 93 -145 165 -180 l57 -28 2210 0 2210 0 55 26
c74 34 120 76 156 141 l29 53 0 1335 0 1335 -27 51 c-32 60 -92 117 -156 147
l-47 22 -2200 2 c-2097 2 -2202 2 -2252 -16z m4434 -132 c34 -13 80 -55 99
-91 10 -19 14 -64 14 -153 l0 -125 -2312 2 -2313 3 -3 89 c-5 157 24 231 102
267 40 18 116 19 2213 19 1511 0 2180 -3 2200 -11z m113 -1834 c0 -726 -2
-870 -14 -893 -21 -41 -68 -81 -107 -92 -22 -6 -814 -10 -2199 -10 -2090 0
-2166 1 -2206 19 -49 22 -80 62 -93 122 -7 28 -11 352 -11 882 l0 837 2315 0
2315 0 0 -865z"/>
<path d="M587 1622 c-14 -16 -17 -43 -17 -175 l0 -157 268 0 c243 0 270 -2
285 -17 32 -36 21 -98 -19 -113 -14 -6 -140 -10 -280 -10 l-254 0 0 -90 0 -90
268 0 c147 0 272 -4 279 -8 20 -13 31 -55 21 -83 -16 -45 -40 -49 -313 -49
l-255 0 0 -153 c0 -144 1 -155 21 -173 20 -18 48 -19 770 -19 l748 0 23 23
c22 21 23 32 26 172 l3 150 -258 0 c-280 0 -300 4 -318 53 -7 21 -6 35 6 55
l15 27 274 5 275 5 3 88 3 87 -266 0 -266 0 -24 25 c-28 27 -32 62 -11 91 13
18 32 19 288 24 l273 5 0 151 c0 135 -2 154 -19 173 -19 21 -20 21 -776 21
-721 0 -758 -1 -773 -18z"/>
<path d="M2482 1234 c-29 -20 -30 -76 -2 -104 20 -20 33 -20 960 -20 927 0
940 0 960 20 28 28 27 84 -2 104 -34 24 -1882 24 -1916 0z"/>
<path d="M2510 913 c-52 -20 -68 -84 -29 -119 20 -18 43 -19 504 -19 461 0
484 1 504 19 28 25 28 77 0 102 -20 18 -44 19 -493 21 -259 1 -478 -1 -486 -4z"/>
</g>
</svg>
