<svg version="1.0" xmlns="http://www.w3.org/2000/svg"
 width="500.000000pt" height="500.000000pt" viewBox="0 0 500.000000 500.000000"
 preserveAspectRatio="xMidYMid meet">
<g transform="translate(0.000000,500.000000) scale(0.100000,-0.100000)"
fill="#000000" stroke="none">
<path d="M2295 4301 c-1292 -6 -1383 -7 -1425 -24 -110 -44 -196 -120 -245
-217 -51 -100 -55 -156 -55 -721 l0 -519 -27 -6 c-154 -34 -275 -123 -335
-244 -44 -91 -50 -152 -46 -426 5 -276 11 -309 72 -401 l34 -51 -98 -4 c-145
-5 -140 4 -140 -230 0 -247 -18 -228 220 -228 l180 0 0 -184 c0 -112 4 -196
12 -217 31 -93 94 -133 210 -134 69 0 80 3 119 30 78 55 83 72 89 300 l5 200
1631 3 1632 2 4 -192 c5 -216 11 -242 71 -295 89 -78 236 -69 314 20 46 52 53
91 53 285 l0 172 103 1 c178 1 267 12 283 34 11 14 14 60 14 201 0 233 3 228
-138 232 l-99 4 34 56 c60 100 66 132 70 397 6 274 -1 327 -52 432 -56 114
-176 209 -290 228 -83 14 -75 -48 -75 554 0 444 -3 547 -15 594 -42 162 -153
281 -308 329 -83 25 -130 26 -1802 19z m1807 -174 c67 -33 129 -99 154 -165
17 -43 19 -96 22 -594 l3 -548 -453 0 -453 0 3 360 c2 346 2 361 -18 400 -26
51 -87 96 -151 109 -69 15 -1349 15 -1418 0 -71 -15 -127 -59 -157 -122 -24
-52 -24 -55 -24 -374 0 -185 4 -333 10 -347 l10 -26 -461 0 -460 0 3 548 3
547 33 67 c37 76 93 129 169 158 46 19 100 19 1588 17 l1540 -2 57 -28z m-967
-569 c38 -21 88 -74 109 -115 14 -27 16 -76 16 -333 l0 -300 -760 0 -761 0 3
309 3 309 30 43 c17 23 42 51 56 61 63 47 68 48 689 45 524 -2 588 -4 615 -19z
m1376 -909 c69 -33 124 -88 158 -159 26 -55 26 -56 26 -310 l0 -255 -28 -57
c-16 -33 -49 -76 -78 -102 -92 -83 95 -76 -2088 -76 -1294 0 -1958 4 -1983 10
-62 18 -130 71 -165 128 -46 78 -56 152 -51 397 3 206 4 211 32 273 44 95 115
151 220 172 23 4 909 7 1971 6 l1930 -1 56 -26z m319 -1194 l0 -85 -2330 0
-2330 0 0 85 0 85 2330 0 2330 0 0 -85z m-4108 -357 c2 -159 2 -182 -6 -213
-15 -58 -78 -74 -121 -30 -25 24 -25 27 -25 193 0 93 3 172 7 175 3 4 37 7 75
7 l68 0 2 -132z m3706 -33 c3 -168 -4 -207 -40 -226 -27 -15 -86 -2 -98 21 -6
10 -10 95 -10 195 l0 176 73 -3 72 -3 3 -160z"/>
</g>
</svg>
