<svg version="1.0" xmlns="http://www.w3.org/2000/svg"
 width="500.000000pt" height="500.000000pt" viewBox="0 0 500.000000 500.000000"
 preserveAspectRatio="xMidYMid meet">
<g transform="translate(0.000000,500.000000) scale(0.100000,-0.100000)"
fill="#000000" stroke="none">
<path d="M2250 4301 c-1249 -6 -1338 -7 -1380 -24 -153 -61 -252 -178 -286
-336 -11 -52 -14 -179 -14 -593 l0 -527 -52 -10 c-159 -33 -291 -156 -339
-313 -19 -61 -20 -87 -17 -335 5 -297 10 -330 72 -421 l33 -50 -97 -4 c-145
-5 -140 4 -140 -233 0 -173 2 -194 18 -208 16 -15 45 -17 200 -17 l182 0 0
-181 c0 -113 5 -197 12 -222 40 -134 250 -183 356 -84 52 48 57 69 62 282 l5
200 1633 3 1632 2 0 -164 c0 -91 5 -187 11 -214 35 -166 262 -219 376 -89 46
52 53 91 53 291 l0 179 57 -7 c32 -4 113 -4 182 0 170 10 161 -4 161 228 0
236 4 229 -140 236 l-102 5 21 27 c35 44 69 129 80 198 17 103 14 484 -4 553
-24 92 -55 148 -120 213 -80 81 -115 99 -257 129 l-28 5 0 538 c0 444 -3 548
-15 595 -42 162 -150 279 -305 329 -82 26 -83 26 -1850 19z m1852 -174 c67
-33 129 -99 154 -165 17 -43 19 -96 22 -594 l3 -548 -50 0 -49 0 -4 298 c-4
283 -5 300 -28 357 -29 75 -103 155 -173 186 l-52 24 -620 0 -620 0 -62 -28
c-33 -16 -74 -42 -89 -58 -34 -35 -41 -36 -65 -4 -11 13 -50 39 -87 57 l-67
33 -615 0 c-590 0 -617 -1 -669 -20 -77 -28 -151 -99 -187 -177 l-28 -63 -3
-300 -3 -300 -50 -3 -51 -3 3 553 3 553 24 45 c51 97 108 148 196 176 32 10
361 12 1575 11 l1535 -2 57 -28z m-1801 -595 c40 -16 90 -63 105 -99 11 -25
14 -100 14 -323 l0 -290 -730 0 -730 0 0 290 c0 323 2 333 63 387 32 28 58 37
126 46 59 8 1131 -3 1152 -11z m1626 -11 c23 -11 54 -37 70 -58 l28 -36 3
-304 3 -303 -731 0 -730 0 0 290 c0 323 2 333 63 387 32 28 58 37 126 46 8 1
265 1 571 1 546 -1 556 -2 597 -23z m584 -872 c71 -33 125 -87 158 -158 26
-56 26 -57 26 -311 0 -247 -1 -257 -24 -308 -30 -67 -114 -145 -179 -166 -43
-15 -237 -16 -2012 -14 l-1965 3 -41 22 c-149 80 -179 169 -172 510 4 174 8
216 24 257 38 98 125 168 231 186 27 4 914 7 1973 6 l1925 -1 56 -26z m319
-1194 l0 -85 -2330 0 -2330 0 0 85 0 85 2330 0 2330 0 0 -85z m-4110 -399 c0
-170 -1 -176 -24 -203 -22 -25 -27 -26 -62 -18 -58 15 -64 35 -64 221 0 88 3
164 7 167 3 4 37 7 75 7 l68 0 0 -174z m3708 19 c2 -90 -1 -165 -8 -188 -12
-43 -44 -63 -84 -53 -54 13 -56 23 -56 217 l0 180 73 -3 72 -3 3 -150z"/>
</g>
</svg>
